<svg width="1200" height="300" viewBox="0 0 1200 300" xmlns="http://www.w3.org/2000/svg" role="img" aria-label="Aya Ahmyttou — Backend and Microservices Engineer">
  <defs>
    <linearGradient id="bg" x1="0" y1="0" x2="1200" y2="300" gradientUnits="userSpaceOnUse">
      <stop offset="0" stop-color="#0B1120"/>
      <stop offset="1" stop-color="#121D33"/>
    </linearGradient>
  </defs>
  <rect width="1200" height="300" fill="url(#bg)"/>
  <g stroke="#1E2A45" stroke-width="1">
    <line x1="0" y1="60" x2="1200" y2="60"/>
    <line x1="0" y1="120" x2="1200" y2="120"/>
    <line x1="0" y1="180" x2="1200" y2="180"/>
    <line x1="0" y1="240" x2="1200" y2="240"/>
  </g>
  <g stroke="#2F6FF0" stroke-width="1.2" fill="#4C8DFF">
    <line x1="980" y1="70" x2="1040" y2="50" opacity="0.5"/>
    <line x1="1040" y1="50" x2="1060" y2="100" opacity="0.5"/>
    <line x1="1060" y1="100" x2="1010" y2="120" opacity="0.5"/>
    <line x1="1010" y1="120" x2="980" y2="70" opacity="0.5"/>
    <line x1="1060" y1="100" x2="1120" y2="80" opacity="0.5"/>
    <circle cx="980" cy="70" r="4"/>
    <circle cx="1040" cy="50" r="4"/>
    <circle cx="1060" cy="100" r="4"/>
    <circle cx="1010" cy="120" r="4"/>
    <circle cx="1120" cy="80" r="4"/>
  </g>
  <text x="60" y="128" font-family="Arial, Helvetica, sans-serif" font-size="46" font-weight="700" fill="#FFFFFF">AYA AHMYTTOU</text>
  <text x="60" y="166" font-family="Arial, Helvetica, sans-serif" font-size="19" fill="#4C8DFF" letter-spacing="1.5">BACKEND &amp; MICROSERVICES ENGINEER</text>
  <text x="60" y="212" font-family="Consolas, Menlo, monospace" font-size="14.5" fill="#8291AA">◉ status: final-year engineer · seeking a 1-year alternance (France, 2026)</text>
  <line x1="60" y1="232" x2="1140" y2="232" stroke="#1E2A45" stroke-width="1"/>
  <text x="60" y="263" font-family="Consolas, Menlo, monospace" font-size="13" fill="#5B6A85">stack › java · spring-boot · angular · kafka · docker · kubernetes · postgresql · gitlab-ci</text>
</svg>
